<?xml version="1.0" encoding="utf-8"?><svg viewBox="0 0 170 56" xmlns="http://www.w3.org/2000/svg" xmlns:xlink="http://www.w3.org/1999/xlink"><style>:root>svg{display:none}:root>svg:target{display:block}</style><svg viewBox="0 0 12 16" id="academy" xmlns="http://www.w3.org/2000/svg"><path d="M11.22 5.75L5.97 2.5.78 5.75V1.41L6 .83l5.22.58v4.34zm0 .58l-2.1 1.3-3.14-1.97v.57L8.66 7.9l-.46.29-2.22-1.4v.58l1.75 1.1-.41.29H7.3l-1.33-.82v.58l.87.53-.89.56L.8 6.4l5.17-3.3 5.24 3.22zm0 5.44L6 15.04.78 11.77V7.03l5.2 3.25v.59L2.43 8.64v.57L6 11.47v.6L2.43 9.85v.57L6 12.67l3.6-2.27V7.96l1.62-1.01v4.82zM6 0L0 .66v11.58L6 16l6-3.76V.66L6 0z"/></svg><svg viewBox="0 0 10 10" id="arrow" xmlns="http://www.w3.org/2000/svg"><path clip-rule="evenodd" d="M0 4.2L1.24 3 5 6.62 8.76 3 10 4.2 5 9 0 4.2z"/></svg><svg viewBox="0 0 16 16" id="cart" xmlns="http://www.w3.org/2000/svg"><path fill-rule="evenodd" clip-rule="evenodd" d="M5.66 3.88l.23 2.79h4.22l.23-2.8a2.35 2.35 0 10-4.68 0zm5.78 2.79l.23-2.68a3.68 3.68 0 10-7.34 0l.23 2.68H0L.19 8l.82 5.71A2.67 2.67 0 003.65 16h8.7c1.33 0 2.46-.98 2.64-2.29L15.81 8 16 6.67h-4.55zM11.34 8h-.06l-.22 2.67h3.02L14.46 8h-3.13zm-1.4 0H6.06l.22 2.67h3.44L9.94 8zM4.72 8H1.54l.38 2.67h3.02L4.72 8zm1.9 6.67L6.38 12H9.6l-.22 2.67H6.6zM10.94 12l-.23 2.67h1.63c.67 0 1.23-.5 1.32-1.15L13.9 12h-2.94zm-5.9 0l.23 2.67H3.65c-.67 0-1.23-.5-1.32-1.15L2.1 12h2.94z"/></svg><svg viewBox="0 0 20 16" id="cart-add" xmlns="http://www.w3.org/2000/svg"><path fill-rule="evenodd" clip-rule="evenodd" d="M13.67 13.52v-.02h1.35l-.03.21A2.67 2.67 0 0112.35 16h-8.7A2.67 2.67 0 011 13.71L.19 8 0 6.67h4.55l-.22-2.68A3.68 3.68 0 0111.62 3h-1.37a2.35 2.35 0 00-4.59.88l.23 2.79H9.5V8H6.06l.22 2.67h3.44l.01-.17h1.34l-.01.17h1.44V12h-1.55l-.23 2.67h1.63c.67 0 1.23-.5 1.32-1.15zM4.72 8H1.54l.38 2.67h3.02L4.72 8zm1.9 6.67L6.38 12H9.6l-.22 2.67H6.6zM5.04 12l.23 2.67H3.65c-.67 0-1.23-.5-1.32-1.15L2.1 12h2.94zm10.75-2V7.2H13V5.8h2.8V3h1.4v2.8H20v1.4h-2.8V10h-1.4z" fill="#fff"/></svg><svg viewBox="0 0 52 56" fill="none" id="comfort" xmlns="http://www.w3.org/2000/svg"><path d="M4 4h48l-4 44-20 8-20-8L4 4z" fill="#F0EBFF"/><path fill-rule="evenodd" clip-rule="evenodd" d="M1 0H0l.1 1L4 44l20 8 20-8 3.9-43 .1-1H1zm.1 1l.36 4h45.08l.37-4H1.1zm40.8 5H6.1l.1 1.13-.5.05-.5.04L5.09 6H1.55l3.39 37.3L24 50.92l19.06-7.62L46.45 6h-3.54l-.1 1.22-.5-.04-.5-.05.1-1.13zM6.1 11.62l-.5.04.39 4.45.5-.05.5-.04-.4-4.45-.5.05zm.78 8.88l-.5.05.4 4.44.5-.04.5-.05-.4-4.44-.5.04zm.8 8.89l-.5.04.4 4.45.5-.05.49-.04-.4-4.45-.5.05zm.79 8.88l-.5.05.2 2.22 1.98.8.18-.46.2-.46-1.42-.58-.15-1.61-.5.04zm5.82 4.23l-.19.46 3.96 1.62.2-.47.18-.46-3.96-1.61-.19.46zm7.92 3.23l-.19.46L24 47l1.98-.8-.19-.47-.19-.46-1.6.65-1.6-.65-.19.46zm7.54-1.62l.19.47 3.96-1.62-.2-.46-.18-.46-3.96 1.61.19.46zm7.92-3.23l.18.47 1.98-.81.2-2.22-.5-.05-.5-.04-.14 1.61-1.41.58.19.46zm2.26-7.05l.5.05.4-4.45-.5-.04-.5-.05-.4 4.45.5.04zm.8-8.88l.49.04.4-4.44-.5-.05-.5-.04-.4 4.44.5.05zm.78-8.89l.5.05.4-4.45-.5-.04-.5-.05-.4 4.45.5.04z" fill="#7859CF"/></svg><svg viewBox="0 0 46 56" fill="none" id="ecology" xmlns="http://www.w3.org/2000/svg"><path fill-rule="evenodd" clip-rule="evenodd" d="M38.7 22.12C39.49 15.56 40.2 9.35 46 4 19.5 4 11.85 12.13 8 18c-8.54 13.04-.91 25.67.71 28.09A808.17 808.17 0 004 55.56l.88.44c.64-1.27 1.3-2.6 1.98-4l2.65-5.32c2.6.87 14.45 4.19 21.99-4.68 5.66-6.66 6.45-13.44 7.2-19.88z" fill="#F0EBFF"/><path fill-rule="evenodd" clip-rule="evenodd" d="M5.23 41.05C9.2 33.26 13.7 25.1 18.27 20l.73.66c-4.57 5.08-9.07 13.3-13.03 21.12A26.2 26.2 0 0013.09 43c4.38.12 9.66-.96 13.65-5.65 5.46-6.42 6.22-12.94 6.98-19.4l.02-.13c.68-5.81 1.38-11.64 5.87-16.8-11.79.23-19.48 2.16-24.67 4.68a23.8 23.8 0 00-10.1 8.85A22.6 22.6 0 001.9 33.43a28.93 28.93 0 003.33 7.63zm-.52 1.04C3.1 39.67-4.54 27.04 4 14 7.78 8.24 15.23.3 40.55 0H42a22 22 0 00-1.02 1c-4.87 5.12-5.55 10.96-6.27 17.12-.76 6.44-1.55 13.22-7.21 19.88-7.54 8.87-19.4 5.55-21.99 4.68L2.86 48c-.68 1.4-1.34 2.73-1.98 4L0 51.56l1.97-3.96 2.74-5.51z" fill="#7859CF"/></svg><svg viewBox="0 0 42 56" fill="none" id="energy" xmlns="http://www.w3.org/2000/svg"><path fill-rule="evenodd" clip-rule="evenodd" d="M19.97 35.2L38.13 4 4 30.68l15.97 4.52zm6.06-10.4L7.87 56 42 29.32 26.03 24.8z" fill="#F0EBFF"/><path fill-rule="evenodd" clip-rule="evenodd" d="M34.13 0L0 26.68l15.97 4.52L3.87 52 38 25.32 22.03 20.8 34.13 0zm1.7 25.75l-15.32-4.34L30.66 4 2.16 26.25l15.33 4.34L7.34 48l28.5-22.26z" fill="#7859CF"/></svg><svg viewBox="0 0 16 16" id="log-in" xmlns="http://www.w3.org/2000/svg"><path fill-rule="evenodd" clip-rule="evenodd" d="M10.67 4a2.67 2.67 0 11-5.34 0 2.67 2.67 0 015.34 0zM12 4a4 4 0 11-8 0 4 4 0 018 0zm-8.8 8.31A7.55 7.55 0 018 10.67c1.84 0 3.56.6 4.8 1.64A4.83 4.83 0 0114.67 16H16c0-1.77-.84-3.46-2.34-4.71A8.88 8.88 0 008 9.33c-2.12 0-4.16.7-5.66 1.96A6.16 6.16 0 000 16h1.33c0-1.33.63-2.66 1.87-3.69z"/></svg><svg viewBox="0 0 32 36" id="logo" xmlns="http://www.w3.org/2000/svg"><path fill-rule="evenodd" clip-rule="evenodd" d="M32 18c0 2.87-.6 5.59-1.66 8H17c2.46-3.77 5-8.34 5-13A13 13 0 0012.42.45C13.57.15 14.77 0 16 0c8.84 0 16 8.06 16 18zm-14-5a9 9 0 00-9-9c-6.65 0-9 8.5-9 14 0 9.94 7.16 18 16 18 4.74 0 9-2.32 11.93-6H9l1.1-1.39C13.62 24.21 18 18.7 18 13z"/></svg><svg fill="none" viewBox="0 0 170 36" id="logo-full" xmlns="http://www.w3.org/2000/svg"><path d="M140.08 26.34a10.6 10.6 0 01-3.7-.63 8.82 8.82 0 01-2.95-1.82 8.56 8.56 0 01-2.61-6.29 8.62 8.62 0 012.64-6.29 8.52 8.52 0 012.95-1.8c1.15-.43 2.4-.65 3.77-.65 1.58 0 3 .27 4.24.8a7.94 7.94 0 013.1 2.28l-3.02 2.73a5.83 5.83 0 00-1.88-1.39 5.52 5.52 0 00-4.18-.14 4.5 4.5 0 00-2.5 2.5 5.4 5.4 0 00-.32 1.96 4.77 4.77 0 001.32 3.48 4.56 4.56 0 003.43 1.32c.7 0 1.39-.11 2.06-.34a7 7 0 002.04-1.2l2.67 3.34a10.9 10.9 0 01-3.34 1.58c-1.26.37-2.5.56-3.72.56zm2.86-2.76v-6.34h4.2v6.96l-4.2-.62zm16.16 2.76c-1.34 0-2.58-.22-3.72-.65a9.1 9.1 0 01-2.97-1.83 8.56 8.56 0 01-2.64-6.26 8.39 8.39 0 012.64-6.24 8.9 8.9 0 012.97-1.85c1.14-.43 2.38-.65 3.72-.65 1.36 0 2.6.22 3.72.65a8.63 8.63 0 010 16.18 10.3 10.3 0 01-3.72.65zm0-3.94c.64 0 1.23-.11 1.78-.34a4.06 4.06 0 001.44-.96 5.2 5.2 0 001.32-3.5 5.08 5.08 0 00-1.32-3.48c-.4-.43-.88-.76-1.44-.98a4.8 4.8 0 00-3.58 0 4.2 4.2 0 00-1.44.98 4.7 4.7 0 00-1.3 3.48 5 5 0 001.3 3.5 4.37 4.37 0 003.24 1.3z" fill="#333"/><path fill-rule="evenodd" clip-rule="evenodd" d="M124 18c0 2.87-.6 5.59-1.66 8H109c2.46-3.77 5-8.34 5-13A13 13 0 00104.42.45C105.57.15 106.77 0 108 0c8.84 0 16 8.06 16 18zm-14-5a9 9 0 00-9-9c-6.65 0-9 8.5-9 14 0 9.94 7.16 18 16 18 4.74 0 9-2.32 11.93-6H101l1.1-1.39c3.52-4.4 7.9-9.91 7.9-15.61z" fill="#7859CF"/><path d="M2.65 26V9.2h7.94c1.86 0 3.5.34 4.9 1.03a8 8 0 013.29 2.9 8.1 8.1 0 011.2 4.47c0 1.71-.4 3.2-1.2 4.46a7.86 7.86 0 01-3.29 2.9c-1.4.7-3.04 1.04-4.9 1.04H2.65zm4.75-3.8h3c.96 0 1.8-.17 2.5-.52.72-.37 1.28-.9 1.68-1.58.4-.7.6-1.54.6-2.5 0-.98-.2-1.8-.6-2.5-.4-.68-.96-1.2-1.68-1.56a5.32 5.32 0 00-2.5-.55h-3v9.22zM22.96 26V9.2h7.68c1.53 0 2.85.25 3.96.74a5.77 5.77 0 012.6 2.16 6 6 0 01.9 3.32c0 1.26-.3 2.36-.9 3.28a5.89 5.89 0 01-2.6 2.12 9.9 9.9 0 01-3.96.72H25.6l2.11-2V26h-4.75zm10.4 0l-4.19-6.12h5.07l4.2 6.12h-5.09zm-5.65-5.95l-2.11-2.19h4.75c1 0 1.73-.21 2.2-.64.5-.44.75-1.04.75-1.8 0-.79-.25-1.4-.74-1.83-.48-.43-1.22-.65-2.2-.65H25.6l2.11-2.18v9.29zM41.21 26V9.2h4.75V26H41.2zm8.6 0V9.2h3.92l9.26 11.18h-1.84V9.2h4.65V26h-3.9l-9.26-11.18h1.84V26h-4.65zm24.07-3.72l-.26-5.33 7.22-7.75h5.23l-7.2 7.8-2.64 2.76-2.35 2.52zM69.63 26V9.2h4.7V26h-4.7zm11.28 0l-5.47-6.94 3.1-3.3L86.44 26H80.9z" fill="#333"/></svg><svg fill="none" viewBox="0 0 82 36" id="logo-middle" xmlns="http://www.w3.org/2000/svg"><path d="M76.94 17.24h4.2v6.96c-.96.69-2.07 1.22-3.32 1.58-1.24.37-2.5.56-3.74.56a10.1 10.1 0 01-4.75-1.1 8.41 8.41 0 01-4.51-7.64c0-1.68.4-3.18 1.2-4.51a8.2 8.2 0 013.33-3.1 10.17 10.17 0 014.83-1.13c1.56 0 2.97.27 4.22.8a8.14 8.14 0 013.12 2.28l-3.02 2.73a5.33 5.33 0 00-4.08-1.87 4.7 4.7 0 00-3.48 1.32 4.66 4.66 0 00-1.32 3.48c0 .93.2 1.76.6 2.5.4.72.96 1.28 1.68 1.7a5 5 0 002.47.6c.91 0 1.77-.18 2.57-.55v-4.61z" fill="#333"/><path fill-rule="evenodd" clip-rule="evenodd" d="M58 18c0 2.87-.6 5.59-1.66 8H43c2.46-3.77 5-8.34 5-13A13 13 0 0038.42.45C39.57.15 40.77 0 42 0c8.84 0 16 8.06 16 18zm-14-5a9 9 0 00-9-9c-6.65 0-9 8.5-9 14 0 9.94 7.16 18 16 18 4.74 0 9-2.32 11.93-6H35l1.1-1.39C39.62 24.21 44 18.7 44 13z" fill="#7859CF"/><path d="M1.85 9.2H9.8c1.84 0 3.47.34 4.9 1.03a7.77 7.77 0 013.3 2.93 8.25 8.25 0 011.18 4.44 7.77 7.77 0 01-4.49 7.37A11.12 11.12 0 019.8 26H1.86V9.2zm7.75 13c1.44 0 2.6-.4 3.46-1.22a4.39 4.39 0 001.32-3.38c0-1.44-.44-2.57-1.32-3.38a4.83 4.83 0 00-3.46-1.23h-3v9.22h3z" fill="#333"/></svg><svg viewBox="0 0 16 16" id="menu-button" xmlns="http://www.w3.org/2000/svg"><path fill-rule="evenodd" clip-rule="evenodd" d="M0 2h16v1.5H0V2zm0 5.25h16v1.5H0v-1.5zm16 5.25H0V14h16v-1.5z"/></svg><svg viewBox="0 0 16 16" fill="none" id="menu-button-opened" xmlns="http://www.w3.org/2000/svg"><path clip-rule="evenodd" d="M7.03 8L2 2.97 2.97 2 8 7.03 13.03 2l.97.97L8.97 8 14 13.03l-.97.97L8 8.97 2.97 14 2 13.03 7.03 8z"/></svg><svg viewBox="0 0 20 20" id="ok" xmlns="http://www.w3.org/2000/svg"><path fill-rule="evenodd" clip-rule="evenodd" d="M1.4 1.4C0 2.81 0 5.07 0 9.6v.91c0 4.46 0 6.7 1.4 8.09C2.81 20 5.07 20 9.6 20h.91c4.46 0 6.7 0 8.09-1.4 1.4-1.41 1.4-3.67 1.4-8.2v-.91c0-4.46 0-6.7-1.4-8.09C17.19 0 14.93 0 10.4 0h-.91C5.03 0 2.79 0 1.4 1.4zm8.62 8.8A3.03 3.03 0 1010 4.13a3.03 3.03 0 000 6.07zm0-4.28a1.25 1.25 0 010 2.5c-.69 0-1.25-.56-1.25-1.25a1.23 1.23 0 011.25-1.25zm1.21 6.76a5.73 5.73 0 001.76-.72.88.88 0 00.28-1.24.88.88 0 00-1.24-.27 3.85 3.85 0 01-4.08 0 .9.9 0 00-1.23.27.9.9 0 00.3 1.22 5.8 5.8 0 001.77.72L7.1 14.35a.89.89 0 000 1.25c.18.18.4.25.63.25.24 0 .46-.09.64-.25l1.67-1.67 1.67 1.67a.89.89 0 001.25-1.25l-1.73-1.67z"/></svg><svg fill="none" viewBox="0 0 13 16" id="pin" xmlns="http://www.w3.org/2000/svg"><path fill-rule="evenodd" clip-rule="evenodd" d="M11.8 6.5c0 2.33-1.37 4.42-2.91 6.01a17.54 17.54 0 01-2.39 2.05 16.93 16.93 0 01-2.39-2.05C2.57 10.91 1.2 8.83 1.2 6.5a5.3 5.3 0 1110.6 0zm1.2 0c0 5.59-6.5 9.5-6.5 9.5S0 12.09 0 6.5a6.5 6.5 0 0113 0zm-4.2 0a2.3 2.3 0 11-4.6 0 2.3 2.3 0 014.6 0zm1.2 0a3.5 3.5 0 11-7 0 3.5 3.5 0 017 0z" fill="#7859CF"/></svg><svg viewBox="0 0 22 22" id="pinterest" xmlns="http://www.w3.org/2000/svg"><path d="M11 0a11 11 0 00-4 21.25c-.1-.87-.2-2.21.03-3.16l1.29-5.47s-.33-.66-.33-1.63c0-1.53.89-2.67 2-2.67.93 0 1.38.7 1.38 1.54 0 .95-.6 2.36-.9 3.67-.27 1.1.54 1.99 1.62 1.99 1.96 0 3.46-2.07 3.46-5.04 0-2.64-1.9-4.48-4.6-4.48A4.76 4.76 0 006 10.78c0 .94.36 1.96.82 2.5.09.12.1.21.07.32l-.3 1.25c-.05.2-.16.24-.37.15-1.38-.64-2.23-2.65-2.23-4.26 0-3.47 2.52-6.66 7.26-6.66 3.82 0 6.78 2.72 6.78 6.35 0 3.8-2.39 6.84-5.7 6.84-1.12 0-2.17-.58-2.52-1.26l-.69 2.62a12.3 12.3 0 01-1.37 2.88A11 11 0 1011 0z"/></svg><svg viewBox="0 0 11 20" id="slider-arrow" xmlns="http://www.w3.org/2000/svg"><path fill-rule="evenodd" clip-rule="evenodd" d="M9.72 0L11 1.32 2.57 10 11 18.68 9.72 20 0 10 9.72 0z"/></svg><svg viewBox="0 0 50 56" fill="none" id="speed" xmlns="http://www.w3.org/2000/svg"><path fill-rule="evenodd" clip-rule="evenodd" d="M23 4h8v3h-3v3.02c3.82.16 7.39 1.26 10.5 3.06 1.85-1.93 6.26.17 4.76 3.66l-.1-.1a23 23 0 11-32.43.1c-2.02-3.03 2.59-6.16 4.77-3.66 3.11-1.8 6.68-2.9 10.5-3.06V7h-3V4z" fill="#F0EBFF"/><path fill-rule="evenodd" clip-rule="evenodd" d="M26 1h-6v1h6V1zm-2 2h3V0h-8v3h3v3.02a22.87 22.87 0 00-9.6 2.57l-.15-.17c-1.53-1.76-3.85-1.44-5.3-.4a4.14 4.14 0 00-1.6 2.26c-.26.96-.1 2.02.56 3.01l.12.19a23 23 0 1033.99.05l.16-.4c.47-1.08.5-2.13.17-3.04-.32-.9-.95-1.6-1.68-2.06-1.41-.89-3.54-1.06-4.9.36l-.17.2A22.87 22.87 0 0024 6.01V3zm-1 4c-3.86 0-7.49 1-10.64 2.74l-.36.2a22 22 0 1022 0l-.36-.2A21.9 21.9 0 0023 7zM11.5 9.08a23.08 23.08 0 00-4.76 3.66 2.98 2.98 0 01-.44-.98c-.55-2.31 2.31-4.31 4.35-3.34.3.15.6.37.85.66zm23 0a23.08 23.08 0 014.76 3.66c.17-.4.26-.77.3-1.12.2-2.33-2.32-3.74-4.1-3.14-.36.12-.69.32-.96.6zM23 31a2 2 0 00.86-3.8l-.91-.2a2 2 0 00.05 4zm-.64-4.93l-1.34-4.94-.04-.14.05-.15 1.5-4.5.47-1.42.47 1.42 1.5 4.5.05.15-.04.14-1.34 4.94.37.1 7.55-13.42.88.5-7.55 13.42a3 3 0 11-2.53-.6zM22.02 21l.98 3.6.98-3.59-.98-2.93-.98 2.93z" fill="#7859CF"/></svg><svg viewBox="0 0 13 16" fill="none" id="tel" xmlns="http://www.w3.org/2000/svg"><path fill-rule="evenodd" clip-rule="evenodd" d="M1.48 1.49A2.7 2.7 0 00.05 4.32L.4 6.09c.93 3.13 2.5 5.77 4.83 8.11l1.4 1.2c.86.72 2.17.8 3.24.2l2.23-1.25c.88-.49 1.17-1.53.63-2.26L10.8 9.5c-.52-.7-1.6-.82-2.37-.26l-1.38.99a5.23 5.23 0 01-2.17-3.67l1.56-.66c.9-.37 1.33-1.33.96-2.11L6.04.85C5.66.03 4.58-.25 3.7.25L1.48 1.48zm-.2 2.53c-.12-.6.2-1.22.78-1.55L4.3 1.23c.22-.13.5-.06.59.15L6.24 4.3c.1.2-.02.43-.24.53L3.57 5.86l.02.42a6.28 6.28 0 003.07 5.16l.36.22 2.13-1.53c.2-.14.46-.11.59.06l1.93 2.61c.14.19.07.45-.15.57l-2.23 1.25c-.59.33-1.3.28-1.77-.12l-1.4-1.19A20.91 20.91 0 011.64 5.8l-.36-1.77z" fill="#7859CF"/></svg><svg fill="none" viewBox="0 0 20 20" id="vk" xmlns="http://www.w3.org/2000/svg"><path fill-rule="evenodd" clip-rule="evenodd" d="M1.4 1.4C0 2.82 0 5.08 0 9.6v.8c0 4.53 0 6.79 1.4 8.2C2.82 20 5.08 20 9.6 20h.8c4.53 0 6.79 0 8.2-1.4 1.4-1.41 1.4-3.67 1.4-8.2v-.8c0-4.53 0-6.79-1.4-8.2C17.18 0 14.92 0 10.4 0h-.8C5.07 0 2.81 0 1.4 1.4zm1.98 4.68c.1 5.2 2.7 8.33 7.26 8.33h.26v-2.98a4.11 4.11 0 013.45 2.98h2.37a6.58 6.58 0 00-3.43-4.18 6.35 6.35 0 002.93-4.15h-2.15c-.47 1.65-1.85 3.15-3.17 3.3v-3.3H8.75v5.77c-1.33-.33-3.02-1.95-3.1-5.77H3.39z" fill="#BDBDBD"/></svg></svg>